<?xml version="1.0" encoding="utf-8"?>
<!-- Generator: Adobe Illustrator 19.0.0, SVG Export Plug-In . SVG Version: 6.00 Build 0)  -->
<svg version="1.1" id="Ebene_1" xmlns="http://www.w3.org/2000/svg" xmlns:xlink="http://www.w3.org/1999/xlink" x="0px" y="0px"
	 viewBox="0 0 595.3 841.9" style="enable-background:new 0 0 595.3 841.9;" xml:space="preserve">
<style type="text/css">
	.st0{fill:#414042;}
	.st1{fill:#FFFFFF;}
	.st2{fill:#726658;}
</style>
<g id="XMLID_5_">
	<polygon id="XMLID_3_" class="st0" points="166.1,433.4 97.8,326.3 166.1,219.1 302.9,219.1 371.2,326.3 302.9,433.4 	"/>
	<rect id="XMLID_4_" x="61" y="288" class="st1" width="344" height="72"/>
	<rect id="XMLID_12_" x="218" y="237" class="st2" width="27" height="27"/>
	<path id="XMLID_15_" class="st2" d="M224.7,264l-5.3,150.1c0,0,10.8,18.5,24.3,0.5L238,263.9"/>
	<path id="XMLID_16_" class="st2" d="M245,237c18,9,30.8,9.5,30.8,9.5v9c0,0-16.3,2-30.8,8.5"/>
	<path id="XMLID_17_" class="st2" d="M275.8,255.5v9c0,0,10.3,6.3,18,0v-27c0,0-10-7.8-18,0v9"/>
	<path id="XMLID_18_" class="st2" d="M218,237c-28.2,6.3-45.4,32.6-42.9,30.7c0,0.2,18.6-5.3,26.1-9.6c8.9-5.1,16.8,5.9,16.8,5.9"/>
	<g id="XMLID_6_">
		<path id="XMLID_7_" class="st0" d="M99.4,305h-17v-4.9h39.1v4.9h-16.9v43.1h-5.2V305z"/>
		<path id="XMLID_9_" class="st0" d="M129.1,300.1h5.2v48h-5.2V300.1z"/>
		<path id="XMLID_11_" class="st0" d="M152.2,347.9c-2-0.6-4.3-1.7-7.1-3.2v-5.6c1.7,1.4,3.9,2.6,6.5,3.6c2.6,0.9,5.5,1.4,8.7,1.4
			c3.5,0,6.1-0.7,7.8-2.2c1.7-1.5,2.6-3.5,2.6-6c0-1.9-0.5-3.4-1.5-4.6c-1-1.2-2.2-2.2-3.6-2.9c-1.4-0.7-3.5-1.6-6.3-2.6
			c-3-1-5.3-2-7.1-2.9c-1.8-0.9-3.3-2.3-4.5-4c-1.2-1.8-1.9-4.1-1.9-7.1c0-2,0.5-3.9,1.5-5.8c1-1.9,2.6-3.4,4.8-4.7
			c2.2-1.2,5-1.9,8.5-1.9c2.5,0,4.6,0.2,6.2,0.7c1.6,0.5,3.7,1.4,6.4,2.7v5.3c-0.3-0.2-1.2-0.7-2.7-1.5c-1.5-0.8-3-1.5-4.5-1.8
			c-1.6-0.4-3.3-0.6-5.1-0.6c-3.3,0-5.8,0.7-7.3,2.1s-2.4,3.1-2.4,5.1c0,1.9,0.4,3.4,1.3,4.5c0.8,1.2,2,2.1,3.4,2.8
			c1.4,0.7,3.4,1.5,6,2.4c3,1,5.4,2,7.3,3c1.9,1,3.5,2.4,4.9,4.2c1.3,1.8,2,4.2,2,7c0,3.8-1.3,7-3.8,9.6c-2.5,2.6-6.6,4-12.1,4
			C156.8,348.8,154.2,348.5,152.2,347.9z"/>
		<path id="XMLID_14_" class="st0" d="M189.9,342.5c-3.7-4.1-5.6-10.3-5.6-18.4c0-8.2,1.9-14.3,5.6-18.4c3.7-4.1,9.3-6.2,16.7-6.2
			c4.9,0,9.8,1.2,14.6,3.5v5c-4.5-2.4-9.2-3.6-14-3.6c-6,0-10.5,1.6-13.2,4.8c-2.8,3.2-4.2,8.2-4.2,15c0,6.9,1.4,11.9,4.1,15
			c2.8,3.1,7.2,4.7,13.3,4.7c5.1,0,9.8-1.2,14-3.5v5c-4.9,2.3-9.8,3.5-14.6,3.5C199.2,348.7,193.6,346.6,189.9,342.5z"/>
		<path id="XMLID_20_" class="st0" d="M231.3,300.1h5.2v21.6H262v-21.6h5.2v48H262v-21.5h-25.6v21.5h-5.2V300.1z"/>
		<path id="XMLID_22_" class="st0" d="M279.4,300.1h5.2v43h24.6v5h-29.7V300.1z"/>
		<path id="XMLID_24_" class="st0" d="M317.1,300.1h30.3v4.9h-25.1v16.6h22.1v5h-22.1v16.6h25.1v4.9h-30.3V300.1z"/>
		<path id="XMLID_26_" class="st0" d="M388.9,348.1l-12.5-19.4h-12.2v19.4h-5.2v-48h19.7c4.7,0,8.2,1.2,10.6,3.5
			c2.4,2.4,3.6,5.8,3.6,10.4c0,3.7-1,6.8-3,9.4c-2,2.5-4.6,4.1-7.9,4.8l13,19.9H388.9z M364.1,323.9h12.2c3.9,0,6.8-0.8,8.6-2.4
			c1.8-1.6,2.7-3.9,2.7-7.1c0-3.1-0.7-5.4-2.2-7c-1.4-1.6-3.9-2.4-7.4-2.4h-14V323.9z"/>
	</g>
</g>
</svg>
