<svg width="500" height="200" xmlns="http://www.w3.org/2000/svg">
 <style type="text/css">.st0{fill:#b9a499;}
	.st1{fill:#b9a499;}
	.st2{fill:#FFE4CF;}</style>

 <g>
  <title>background</title> 
  <rect fill="none" id="canvas_background" height="202" width="502" y="-1" x="-1"/>
 </g>
 <g>
  <title>Layer 1</title>
  <g stroke="null" transform="rotate(-66.03689575195312 81.32637023925781,91.09578704833986) " id="XMLID_5_">
   <path stroke="null" id="svg_1" d="m-18.131148,115.082336c1.838756,4.431796 2.971522,12.109253 7.626418,13.582944c3.042784,0.979115 8.806584,-3.162937 12.548006,-4.745564c28.139314,-11.884635 59.61052,-25.853294 85.069698,-39.041568c0.763117,-0.903296 1.832878,-1.196333 2.157442,-3.026578c11.100296,-3.659174 21.333937,-9.337361 33.591612,-13.489026c3.889676,-1.32383 8.688497,-3.666921 11.86544,-2.826362l5.666323,1.790517c6.482485,3.129568 10.332508,6.462942 11.02824,13.171312c0.34426,3.41168 -1.327209,7.147222 -1.033877,10.4942c0.188042,2.275672 2.313795,9.278175 4.455627,10.282564c1.665377,0.779068 3.936638,0.357181 6.349051,-0.570329l8.475089,-3.318685c2.397244,-0.95569 4.339548,-2.183979 5.036311,-3.886258c0.897345,-2.191775 -2.294098,-8.782904 -3.705108,-10.584226c-2.056197,-2.660254 -5.812728,-4.25163 -7.879899,-6.99273c-4.050114,-5.401701 -3.490989,-10.462379 -0.840194,-17.169082c-6.241906,-17.766132 -18.932635,-36.609834 -43.53669,-46.917103c-6.675055,-2.79494 -12.792943,-5.806152 -19.107952,-5.362517c-2.34965,1.372032 -1.305117,2.922858 0.155924,4.116709c-1.99466,0.074307 -4.318378,-0.869245 -5.303766,2.42941c16.466877,4.573665 41.095482,22.153708 33.237281,34.628906c-1.755906,2.772047 -6.864604,4.315546 -10.615506,5.986605c-11.830471,5.27415 -23.195437,8.060053 -33.826674,12.908156c-1.484985,-1.117734 -2.46218,-0.616008 -3.649165,-0.745311c-27.6456,7.607904 -60.229451,18.715586 -88.958185,29.10133c-3.823371,1.379749 -10.852773,2.255004 -12.420815,5.036461c-2.412213,4.244337 1.780559,10.711547 3.615348,15.146208l0.000019,0.000016z" stroke-opacity="null" stroke-width="null" fill="#FFE4CF"/>
  </g>
  <text stroke="null" transform="matrix(4.551353930162555,0,0,4.471591687821638,-499.5073812099442,-887.5523876223025) " font-weight="normal" xml:space="preserve" text-anchor="start" font-family="Helvetica, Arial, sans-serif" font-size="24" id="svg_5" y="241.031498" x="129.987081" fill-opacity="null" stroke-opacity="null" stroke-width="0" fill="#b9a499">MOSER</text>
 </g>
</svg>