<?xml version="1.0" encoding="utf-8"?>
<!-- Generator: Adobe Illustrator 19.0.0, SVG Export Plug-In . SVG Version: 6.00 Build 0)  -->
<svg version="1.1" id="Ebene_1" xmlns="http://www.w3.org/2000/svg" xmlns:xlink="http://www.w3.org/1999/xlink" x="0px" y="0px"
	 viewBox="0 0 283 129" style="enable-background:new 0 0 283 129;" xml:space="preserve">
<style type="text/css">
	.st0{fill:none;stroke:#888888;stroke-width:1;stroke-miterlimit:10;}
	.st1{fill:#cfc9c9;stroke:#888888;stroke-width:0;stroke-miterlimit:10;}
</style>
<path id="XMLID_2_" class="st0" d="M2,123.5v-29C2,92.6,3.6,91,5.5,91h11.2c1.8,0,3.3-1.4,3.5-3.2C24.5,39,70.3,25.4,70.5,26
	l7.8,6.9c1.9,1.7,1.5,4.8-0.9,5.8C58.8,47.2,56.3,77,56,87.4c-0.1,2,1.5,3.6,3.5,3.6h13.5c0.6,0,1.2-0.2,1.7-0.4
	c22.5-12.5,26-26.2,26.3-32.3c0.1-1.8,1.7-3.3,3.5-3.3h75.7c1.1,0,2.1-0.5,2.7-1.3l41.3-50.5c1.2-1.5,3.5-1.7,5-0.5l3,2.5
	c1.4,1.2,1.7,3.2,0.7,4.7l-3.8,5.7c-1.2,1.8-0.5,4.2,1.4,5.1l11.2,5.6c1.9,0.9,2.6,3.4,1.3,5.2l-12.4,18c-1.6,2.3,0.1,5.5,2.9,5.5
	h16.8c1.9,0,3.5,1.6,3.5,3.5V87c0,1.9,1.6,3.5,3.5,3.5h20c1.9,0,3.5,1.6,3.5,3.5v29.2c0,1.9-1.6,3.5-3.5,3.5L5.5,127
	C3.6,127,2,125.5,2,123.5z"/>
<path id="XMLID_2_" class="st1" d="M2,123.5v-29C2,92.6,3.6,91,5.5,91h11.2c1.8,0,3.3-1.4,3.5-3.2C24.5,39,70.3,25.4,70.5,26
	l7.8,6.9c1.9,1.7,1.5,4.8-0.9,5.8C58.8,47.2,56.3,77,56,87.4c-0.1,2,1.5,3.6,3.5,3.6h13.5c0.6,0,1.2-0.2,1.7-0.4
	c22.5-12.5,26-26.2,26.3-32.3c0.1-1.8,1.7-3.3,3.5-3.3h75.7c1.1,0,2.1-0.5,2.7-1.3l41.3-50.5c1.2-1.5,3.5-1.7,5-0.5l3,2.5
	c1.4,1.2,1.7,3.2,0.7,4.7l-3.8,5.7c-1.2,1.8-0.5,4.2,1.4,5.1l11.2,5.6c1.9,0.9,2.6,3.4,1.3,5.2l-12.4,18c-1.6,2.3,0.1,5.5,2.9,5.5
	h16.8c1.9,0,3.5,1.6,3.5,3.5V87c0,1.9,1.6,3.5,3.5,3.5h20c1.9,0,3.5,1.6,3.5,3.5v29.2c0,1.9-1.6,3.5-3.5,3.5L5.5,127
	C3.6,127,2,125.5,2,123.5z"/>
</svg>
