<svg width="400" height="400" xmlns="http://www.w3.org/2000/svg">
 <!-- Created with Method Draw - http://github.com/duopixel/Method-Draw/ -->
 <g>
  <title>background</title>
  <rect fill="#fff" id="canvas_background" height="402" width="402" y="-1" x="-1"/>
  <g display="none" overflow="visible" y="0" x="0" height="100%" width="100%" id="canvasGrid">
   <rect fill="url(#gridpattern)" stroke-width="0" y="0" x="0" height="100%" width="100%"/>
  </g>
 </g>
 <g>
  <title>Layer 1</title>
  <path stroke="#000" id="svg_1" d="m72.674272,381.760847c9.366926,4.829404 22.149899,16.105138 32.048855,11.979703c6.493097,-2.670231 10.292587,-17.789738 14.326728,-25.748392c30.366877,-59.826258 63.370094,-127.871943 87.392327,-186.086585c0,-2.597221 1.379518,-4.605211 -0.67024,-8.136079c13.437619,-21.873553 22.559327,-45.906171 37.240741,-70.246545c4.649693,-7.734542 9.380046,-18.467923 15.901859,-21.560769l12.045047,-5.027571c15.31244,-3.937687 26.496945,-3.802112 37.173027,6.467154c5.413458,5.23625 7.903979,13.873049 13.140322,19.072855c3.54111,3.551651 17.033416,12.287459 22.050715,10.936723c3.898485,-1.05348 7.111285,-4.980694 9.844147,-9.956361l9.515621,-17.581152c2.667515,-5.001451 4.185297,-9.815422 2.941448,-13.659167c-1.601103,-4.949372 -16.298367,-11.484387 -21.219089,-12.506624c-7.220659,-1.548917 -15.779149,1.10576 -23.132842,-0.563218c-14.451978,-3.322242 -20.687154,-12.605688 -25.745992,-27.615713c-35.655353,-20.96081 -83.658024,-34.588736 -139.549268,-17.007529c-15.16119,4.772122 -29.694124,8.391635 -39.660766,18.087196c-1.997517,5.632544 1.953262,6.753979 6.096818,6.686064c-3.241339,2.952028 -8.477548,4.662667 -5.455226,11.593949c34.11141,-15.667157 100.35259,-21.080738 104.850872,10.988963c0.983131,7.139907 -5.400539,16.970964 -9.325238,25.091367c-12.37356,25.618195 -27.493062,46.401675 -38.458456,69.605141c-4.075882,0.229503 -5.004232,2.45643 -7.179079,3.921972c-35.600531,51.950925 -74.525844,116.773538 -108.006242,174.920399c-4.459203,7.734421 -15.012642,19.166716 -13.700985,26.056122c1.96887,10.540443 18.170526,15.448248 27.534871,20.288097l0.000027,0z" stroke-width="0" fill="#043636"/>
 </g>
</svg>